<svg width="102" height="35" viewBox="0 0 102 35" fill="none" xmlns="http://www.w3.org/2000/svg">
<path d="M21.0001 11.5312L18.5001 11.5312C18.3031 11.5312 18.108 11.57 17.926 11.6454C17.7441 11.7208 17.5787 11.8312 17.4393 11.9705C17.3001 12.1099 17.1896 12.2753 17.1142 12.4572C17.0388 12.6392 17 12.8343 17 13.0312L17 18.5313C16.5 20.5308 16.4065 21.1247 15 22.5313C13.5935 23.9378 12.4892 25.0312 10.5 25.0313C9.51511 25.0313 8.90995 24.9082 8 24.5312C7.09004 24.1543 6.19645 23.2277 5.5 22.5313C4.80356 21.8348 4.87691 21.9412 4.5 21.0312C4.12309 20.1213 4.00003 19.5162 4.00004 18.5312L4.00004 13.0317C4.0001 12.8347 3.96134 12.6395 3.88599 12.4575C3.81063 12.2755 3.70015 12.11 3.56086 11.9707C3.42155 11.8314 3.25617 11.7209 3.07415 11.6454C2.89214 11.57 2.69705 11.5312 2.50002 11.5312L-7.43095e-07 11.5312L-4.15255e-07 18.0313C-3.55061e-07 19.4102 0.271592 20.7756 0.799269 22.0495C1.32695 23.3234 2.10038 24.4809 3.07539 25.4559C4.05042 26.4309 5.20793 27.2044 6.48186 27.732C7.75578 28.2597 9.12116 28.5313 10.5 28.5312C13.2848 28.5312 15.9555 27.425 17.9247 25.4559C19.8938 23.4868 21.0001 20.8161 21.0001 18.0313L21.0001 11.5312Z" fill="#EA580C"/>
<circle cx="4.5" cy="10.9688" r="4.5" fill="white"/>
<path d="M33.0313 11.0938V14.2812H23.1876V11.0938H33.0313ZM25.6251 6.92188H30.1251V22.9062C30.1251 23.3958 30.1876 23.7708 30.3126 24.0312C30.448 24.2917 30.6459 24.474 30.9063 24.5781C31.1667 24.6719 31.4949 24.7188 31.8907 24.7188C32.1719 24.7188 32.4219 24.7083 32.6407 24.6875C32.8699 24.6562 33.0626 24.625 33.2188 24.5938L33.2344 27.9062C32.849 28.0312 32.4324 28.1302 31.9844 28.2031C31.5365 28.276 31.0417 28.3125 30.5001 28.3125C29.5105 28.3125 28.6459 28.151 27.9063 27.8281C27.1771 27.4948 26.6146 26.9635 26.2188 26.2344C25.823 25.5052 25.6251 24.5469 25.6251 23.3594V6.92188ZM43.3751 28.3125C42.0626 28.3125 40.8855 28.1042 39.8438 27.6875C38.8021 27.2604 37.9167 26.6719 37.1876 25.9219C36.4688 25.1719 35.9167 24.3021 35.5313 23.3125C35.1459 22.3125 34.9532 21.25 34.9532 20.125V19.5C34.9532 18.2188 35.1355 17.0469 35.5001 15.9844C35.8646 14.9219 36.3855 14 37.0626 13.2188C37.7501 12.4375 38.5834 11.8385 39.5626 11.4219C40.5417 10.9948 41.6459 10.7812 42.8751 10.7812C44.073 10.7812 45.1355 10.9792 46.0626 11.375C46.9896 11.7708 47.7657 12.3333 48.3907 13.0625C49.0261 13.7917 49.5053 14.6667 49.8282 15.6875C50.1511 16.6979 50.3126 17.8229 50.3126 19.0625V20.9375H36.8751V17.9375H45.8907V17.5938C45.8907 16.9688 45.7761 16.4115 45.5469 15.9219C45.3282 15.4219 44.9949 15.026 44.5469 14.7344C44.099 14.4427 43.5261 14.2969 42.8282 14.2969C42.2344 14.2969 41.724 14.4271 41.2969 14.6875C40.8699 14.9479 40.5209 15.3125 40.2501 15.7812C39.9896 16.25 39.7917 16.8021 39.6563 17.4375C39.5313 18.0625 39.4688 18.75 39.4688 19.5V20.125C39.4688 20.8021 39.5626 21.4271 39.7501 22C39.948 22.5729 40.224 23.0677 40.5782 23.4844C40.9428 23.901 41.3803 24.224 41.8907 24.4531C42.4115 24.6823 43.0001 24.7969 43.6563 24.7969C44.4688 24.7969 45.224 24.6406 45.9219 24.3281C46.6303 24.0052 47.2396 23.5208 47.7501 22.875L49.9376 25.25C49.5834 25.7604 49.099 26.25 48.4844 26.7188C47.8803 27.1875 47.1511 27.5729 46.2969 27.875C45.4428 28.1667 44.4688 28.3125 43.3751 28.3125ZM62.0001 24.1875V16.6562C62.0001 16.1146 61.9115 15.651 61.7344 15.2656C61.5574 14.8698 61.2813 14.5625 60.9063 14.3438C60.5417 14.125 60.0678 14.0156 59.4844 14.0156C58.9844 14.0156 58.5521 14.1042 58.1876 14.2812C57.823 14.4479 57.5417 14.6927 57.3438 15.0156C57.1459 15.3281 57.0469 15.6979 57.0469 16.125H52.5469C52.5469 15.4062 52.7136 14.724 53.0469 14.0781C53.3803 13.4323 53.8646 12.8646 54.5001 12.375C55.1355 11.875 55.8907 11.4844 56.7657 11.2031C57.6511 10.9219 58.6407 10.7812 59.7344 10.7812C61.0469 10.7812 62.2136 11 63.2344 11.4375C64.2553 11.875 65.0574 12.5312 65.6407 13.4062C66.2344 14.2812 66.5313 15.375 66.5313 16.6875V23.9219C66.5313 24.849 66.5886 25.6094 66.7032 26.2031C66.8178 26.7865 66.9844 27.2969 67.2032 27.7344V28H62.6563C62.4376 27.5417 62.2709 26.9688 62.1563 26.2812C62.0521 25.5833 62.0001 24.8854 62.0001 24.1875ZM62.5938 17.7031L62.6251 20.25H60.1094C59.5157 20.25 59.0001 20.3177 58.5626 20.4531C58.1251 20.5885 57.7657 20.7812 57.4844 21.0312C57.2032 21.2708 56.9949 21.5521 56.8594 21.875C56.7344 22.1979 56.6719 22.5521 56.6719 22.9375C56.6719 23.3229 56.7605 23.6719 56.9376 23.9844C57.1146 24.2865 57.3699 24.526 57.7032 24.7031C58.0365 24.8698 58.4271 24.9531 58.8751 24.9531C59.5521 24.9531 60.1407 24.8177 60.6407 24.5469C61.1407 24.276 61.5261 23.9427 61.7969 23.5469C62.0782 23.151 62.224 22.776 62.2344 22.4219L63.4219 24.3281C63.2553 24.7552 63.0261 25.1979 62.7344 25.6562C62.4532 26.1146 62.0938 26.5469 61.6563 26.9531C61.2188 27.349 60.6928 27.6771 60.0782 27.9375C59.4636 28.1875 58.7344 28.3125 57.8907 28.3125C56.8178 28.3125 55.8438 28.099 54.9688 27.6719C54.1042 27.2344 53.4167 26.6354 52.9063 25.875C52.4063 25.1042 52.1563 24.2292 52.1563 23.25C52.1563 22.3646 52.323 21.5781 52.6563 20.8906C52.9896 20.2031 53.4792 19.625 54.1251 19.1562C54.7813 18.6771 55.599 18.3177 56.5782 18.0781C57.5574 17.8281 58.6928 17.7031 59.9844 17.7031H62.5938ZM76.9844 24.7969C77.5365 24.7969 78.0261 24.6927 78.4532 24.4844C78.8803 24.2656 79.2136 23.9635 79.4532 23.5781C79.7032 23.1823 79.8334 22.7188 79.8438 22.1875H84.0782C84.0678 23.375 83.7501 24.4323 83.1251 25.3594C82.5001 26.276 81.6615 27 80.6094 27.5312C79.5574 28.0521 78.3803 28.3125 77.0782 28.3125C75.7657 28.3125 74.6199 28.0938 73.6407 27.6562C72.6719 27.2188 71.8646 26.6146 71.2188 25.8438C70.573 25.0625 70.0886 24.1562 69.7657 23.125C69.4428 22.0833 69.2813 20.9688 69.2813 19.7812V19.3281C69.2813 18.1302 69.4428 17.0156 69.7657 15.9844C70.0886 14.9427 70.573 14.0365 71.2188 13.2656C71.8646 12.4844 72.6719 11.875 73.6407 11.4375C74.6094 11 75.7449 10.7812 77.0469 10.7812C78.4324 10.7812 79.6459 11.0469 80.6876 11.5781C81.7396 12.1094 82.5626 12.8698 83.1563 13.8594C83.7605 14.8385 84.0678 16 84.0782 17.3438H79.8438C79.8334 16.7812 79.7136 16.2708 79.4844 15.8125C79.2657 15.3542 78.9428 14.9896 78.5157 14.7188C78.099 14.4375 77.5834 14.2969 76.9688 14.2969C76.3126 14.2969 75.7761 14.4375 75.3594 14.7188C74.9428 14.9896 74.6199 15.3646 74.3907 15.8438C74.1615 16.3125 74.0001 16.849 73.9063 17.4531C73.823 18.0469 73.7813 18.6719 73.7813 19.3281V19.7812C73.7813 20.4375 73.823 21.0677 73.9063 21.6719C73.9896 22.276 74.1459 22.8125 74.3751 23.2812C74.6146 23.75 74.9428 24.1198 75.3594 24.3906C75.7761 24.6615 76.3178 24.7969 76.9844 24.7969ZM91.0782 4V28H86.5782V4H91.0782ZM90.4376 18.9531H89.2032C89.2136 17.776 89.3699 16.6927 89.6719 15.7031C89.974 14.7031 90.4063 13.8385 90.9688 13.1094C91.5313 12.3698 92.2032 11.7969 92.9844 11.3906C93.7761 10.9844 94.6511 10.7812 95.6094 10.7812C96.4428 10.7812 97.198 10.901 97.8751 11.1406C98.5626 11.3698 99.1511 11.7448 99.6407 12.2656C100.141 12.776 100.526 13.4479 100.797 14.2812C101.068 15.1146 101.203 16.125 101.203 17.3125V28H96.6719V17.2812C96.6719 16.5312 96.5626 15.9427 96.3438 15.5156C96.1355 15.0781 95.8282 14.7708 95.4219 14.5938C95.0261 14.4062 94.5365 14.3125 93.9532 14.3125C93.3074 14.3125 92.7553 14.4323 92.2969 14.6719C91.849 14.9115 91.4896 15.2448 91.2188 15.6719C90.948 16.0885 90.7501 16.5781 90.6251 17.1406C90.5001 17.7031 90.4376 18.3073 90.4376 18.9531Z" fill="white"/>
</svg>
